
<!-- Generator: Adobe Illustrator 22.1.0, SVG Export Plug-In . SVG Version: 6.00 Build 0)  -->
<svg version="1.1" id="Layer_1" xmlns="http://www.w3.org/2000/svg" xmlns:xlink="http://www.w3.org/1999/xlink" x="0px" y="0px"
	 viewBox="0 0 1000 1000" style="enable-background:new 0 0 1000 1000;" xml:space="preserve">
<style type="text/css">
	.st0{font-family:'MyriadPro-Regular';}
	.st1{font-size:12px;}
	.st2{fill:#fff;}
</style>
<text transform="matrix(1 0 0 1 500 500)" class="st0 st1">3CB37</text>
<polygon points="101.2,549.3 101.1,549.4 60.1,508.4 60.2,508.3 "/>
<polygon points="101.2,467.3 60.2,508.3 60.1,508.3 101.1,467.2 "/>
<polygon points="924.3,508.3 924.2,508.3 883.2,467.3 883.2,467.2 "/>
<g>
	<g>
		<path class="st2" d="M308.3,620.2c-18.6-4.4-33.5-10.1-44.8-17.1l24.1-54.9c10.4,6.5,22.8,11.6,37.2,15.4
			c14.4,3.8,28.6,5.7,42.7,5.7c12.9,0,22.2-1.3,27.7-4c5.5-2.7,8.2-6.5,8.2-11.6s-3.3-8.7-9.9-10.8c-6.6-2.1-17.1-4.2-31.5-6.1
			c-18.3-2.3-33.9-5.2-46.7-8.9c-12.8-3.7-23.9-10.4-33.2-20.3c-9.3-9.9-13.9-23.7-13.9-41.4c0-14.6,4.4-27.7,13.1-39.1
			c8.7-11.4,21.5-20.4,38.2-27c16.8-6.6,36.8-9.9,60.2-9.9c16.6,0,33.1,1.7,49.4,5.1c16.3,3.4,30,8.2,41,14.4L446,464.1
			c-20.3-11.3-42.2-16.9-65.9-16.9c-12.7,0-22,1.5-27.9,4.4s-8.9,6.8-8.9,11.6c0,5.4,3.2,9.1,9.7,11.2c6.5,2.1,17.2,4.3,32.1,6.5
			c18.9,2.8,34.5,6.1,46.9,9.7c12.4,3.7,23.2,10.3,32.3,20.1c9.1,9.7,13.7,23.3,13.7,40.8c0,14.4-4.4,27.2-13.1,38.6
			c-8.7,11.4-21.6,20.3-38.6,26.8c-17,6.5-37.5,9.7-61.5,9.7C345.8,626.7,326.9,624.5,308.3,620.2z"/>
		<path class="st2" d="M561.8,611.5c-20-10.1-35.6-24.2-46.7-42.2c-11.1-18-16.7-38.4-16.7-61.2c0-22.8,5.6-43.1,16.7-61
			c11.1-17.9,26.7-31.8,46.7-41.8c20-10,42.7-15,68-15c25.9,0,48.3,5.6,67.2,16.7c18.9,11.1,32.2,26.5,40.1,46.2L675,484.8
			c-10.4-20.6-25.6-30.8-45.6-30.8c-14.4,0-26.3,4.8-35.7,14.4c-9.4,9.6-14.1,22.8-14.1,39.7c0,17.2,4.7,30.6,14.1,40.3
			c9.4,9.7,21.3,14.6,35.7,14.6c20,0,35.2-10.3,45.6-30.8l62.1,31.7c-7.9,19.7-21.3,35.1-40.1,46.3c-18.9,11.1-41.3,16.7-67.2,16.7
			C604.4,626.7,581.8,621.6,561.8,611.5z"/>
	</g>
	<path class="st2" d="M170.5,528.8l44.1,44.1c11.3,11.3,11.3,29.7,0,41h0c-11.3,11.3-29.7,11.3-41,0L109,549.3l-20.5-20.5
		c-11.3-11.3-11.3-29.7,0-41l20.5-20.5l64.6-64.6c11.3-11.3,29.7-11.3,41,0l0,0c11.3,11.3,11.3,29.7,0,41l-44.1,44.1
		C159.2,499.1,159.2,517.5,170.5,528.8z"/>
	<path class="st2" d="M911.5,487.8c11.3,11.3,11.3,29.7,0,41L891,549.3l-64.6,64.6c-11.3,11.3-29.7,11.3-41,0h0
		c-11.3-11.3-11.3-29.7,0-41l44.1-44.1c11.3-11.3,11.3-29.7,0-41l-44.1-44.1c-11.3-11.3-11.3-29.7,0-41l0,0
		c11.3-11.3,29.7-11.3,41,0l64.6,64.6L911.5,487.8z"/>
</g>
<polygon points="924.3,508.4 883.2,549.4 883.2,549.3 924.2,508.3 "/>
</svg>
